<svg version="1.1" xmlns="http://www.w3.org/2000/svg"
     xmlns:xlink="http://www.w3.org/1999/xlink"
     width="512" height="512"
     viewBox="0 0 480 480">
    <g id="Layer1" name="Layer 1" opacity="1">
        <g id="Shape1">
            <desc shapeID="1" type="0" basicInfo-basicType="0" basicInfo-roundedRectRadius="12" basicInfo-polygonSides="6" basicInfo-starPoints="5" bounding="rect(-237.095,-237.1,474.19,474.2)" text="" font-familyName="" font-pixelSize="20" font-bold="0" font-underline="0" font-alignment="1" strokeStyle="0" markerStart="0" markerEnd="0" shadowEnabled="0" shadowOffsetX="0" shadowOffsetY="2" shadowBlur="4" shadowOpacity="160" blurEnabled="0" blurRadius="4" transform="matrix(1,0,0,1,240,240)" pers-center="0,0" pers-size="0,0" pers-start="0,0" pers-end="0,0" locked="0" mesh="" flag=""/>
            <path id="shapePath1" d="M477.095,240 C477.095,370.86 370.855,477.1 240.005,477.1 C109.145,477.1 2.90501,370.86 2.90501,240 C2.90501,109.14 109.145,2.90001 240.005,2.90001 C370.855,2.90001 477.095,109.14 477.095,240 Z" style="stroke:none;fill-rule:nonzero;fill:#23930b;fill-opacity:1;"/>
        </g>
        <g id="Shape2">
            <desc shapeID="2" type="0" basicInfo-basicType="0" basicInfo-roundedRectRadius="12" basicInfo-polygonSides="6" basicInfo-starPoints="5" bounding="rect(-114.458,-91.6335,228.915,183.267)" text="" font-familyName="" font-pixelSize="20" font-bold="0" font-underline="0" font-alignment="1" strokeStyle="0" markerStart="0" markerEnd="0" shadowEnabled="0" shadowOffsetX="0" shadowOffsetY="2" shadowBlur="4" shadowOpacity="160" blurEnabled="0" blurRadius="4" transform="matrix(1.26681,0,0,1.58026,246.565,247.145)" pers-center="0,0" pers-size="0,0" pers-start="0,0" pers-end="0,0" locked="0" mesh="" flag=""/>
            <path id="shapePath2" d="M159.884,111.374 C174.861,101.469 189.039,102.361 189.039,102.361 L391.561,102.361 L383.967,146.659 C383.967,146.659 382.646,157.354 372.636,166.128 C363.688,173.971 349.998,173.711 349.998,173.711 L261.857,173.711 L264.672,155.547 L201.118,195.597 L253.585,238.433 L256.679,220.421 L336.838,221.169 L339.622,201.599 L379.543,251.907 L327.15,299.715 L329.723,279.475 L279.496,279.475 L213.132,279.475 C213.132,279.475 202.649,278.611 196.969,284.756 C192.452,289.643 190.594,299.964 190.594,299.964 L175.26,391.951 L101.568,391.951 L144.698,135.757 C144.698,135.757 147.308,119.691 159.884,111.374 Z" style="stroke:none;fill-rule:evenodd;fill:#dde096;fill-opacity:1;"/>
        </g>
    </g>
</svg>
